<svg xmlns="http://www.w3.org/2000/svg" viewBox="0 0 1200 800" role="img" aria-labelledby="title desc">
  <title id="title">Science gallery placeholder</title>
  <desc id="desc">Abstract laboratory science illustration placeholder.</desc>
  <defs>
    <linearGradient id="bg" x1="0" x2="1" y1="0" y2="1">
      <stop offset="0" stop-color="#e8f3ff"/>
      <stop offset="0.55" stop-color="#eef8f5"/>
      <stop offset="1" stop-color="#fff6ea"/>
    </linearGradient>
    <linearGradient id="accent" x1="0" x2="1" y1="0" y2="1">
      <stop offset="0" stop-color="#2b6cb0"/>
      <stop offset="1" stop-color="#20a486"/>
    </linearGradient>
    <filter id="shadow" x="-20%" y="-20%" width="140%" height="140%">
      <feDropShadow dx="0" dy="18" stdDeviation="18" flood-color="#1b3355" flood-opacity="0.18"/>
    </filter>
  </defs>
  <rect width="1200" height="800" fill="url(#bg)"/>
  <circle cx="1020" cy="150" r="180" fill="#ffffff" opacity="0.42"/>
  <circle cx="145" cy="690" r="230" fill="#ffffff" opacity="0.34"/>
  <g filter="url(#shadow)">
    <rect x="260" y="185" width="680" height="430" rx="34" fill="#fff" opacity="0.94"/>
    <path d="M360 520c105-180 215-56 315-194 62-86 139-94 205-40" fill="none" stroke="url(#accent)" stroke-width="24" stroke-linecap="round"/>
    <g fill="url(#accent)">
      <circle cx="360" cy="520" r="26"/>
      <circle cx="506" cy="416" r="26"/>
      <circle cx="675" cy="326" r="26"/>
      <circle cx="880" cy="286" r="26"/>
    </g>
    <g stroke="#9cc6e5" stroke-width="14" stroke-linecap="round" opacity="0.8">
      <path d="M355 265h210"/>
      <path d="M355 315h115"/>
      <path d="M745 505h95"/>
      <path d="M690 555h150"/>
    </g>
  </g>
  <text x="600" y="710" text-anchor="middle" font-family="Arial, Helvetica, sans-serif" font-size="44" font-weight="700" fill="#31516f">Science Photo Placeholder</text>
</svg>
