<svg xmlns="http://www.w3.org/2000/svg" viewBox="0 0 1200 800" role="img" aria-labelledby="title desc">
  <title id="title">Lab life gallery placeholder</title>
  <desc id="desc">Abstract team and community illustration placeholder.</desc>
  <defs>
    <linearGradient id="bg" x1="0" x2="1" y1="0" y2="1">
      <stop offset="0" stop-color="#fff3e8"/>
      <stop offset="0.55" stop-color="#f4f0ff"/>
      <stop offset="1" stop-color="#e9f8f4"/>
    </linearGradient>
    <linearGradient id="accent" x1="0" x2="1" y1="0" y2="1">
      <stop offset="0" stop-color="#d97706"/>
      <stop offset="1" stop-color="#7c3aed"/>
    </linearGradient>
    <filter id="shadow" x="-20%" y="-20%" width="140%" height="140%">
      <feDropShadow dx="0" dy="18" stdDeviation="18" flood-color="#4b2b1a" flood-opacity="0.16"/>
    </filter>
  </defs>
  <rect width="1200" height="800" fill="url(#bg)"/>
  <circle cx="180" cy="165" r="170" fill="#ffffff" opacity="0.38"/>
  <circle cx="1045" cy="650" r="230" fill="#ffffff" opacity="0.34"/>
  <g filter="url(#shadow)">
    <rect x="245" y="170" width="710" height="455" rx="40" fill="#fff" opacity="0.94"/>
    <g fill="url(#accent)">
      <circle cx="455" cy="330" r="72" opacity="0.92"/>
      <circle cx="600" cy="300" r="88" opacity="0.92"/>
      <circle cx="745" cy="330" r="72" opacity="0.92"/>
      <path d="M320 555c25-115 100-175 190-175s165 60 190 175z" opacity="0.84"/>
      <path d="M500 560c28-132 116-204 220-204s192 72 220 204z" opacity="0.72"/>
      <path d="M260 560c24-96 90-150 168-150s144 54 168 150z" opacity="0.64"/>
    </g>
    <path d="M370 228h460" stroke="#f0c98e" stroke-width="18" stroke-linecap="round" opacity="0.72"/>
  </g>
  <text x="600" y="710" text-anchor="middle" font-family="Arial, Helvetica, sans-serif" font-size="44" font-weight="700" fill="#654062">Lab Life Photo Placeholder</text>
</svg>
